<?xml version="1.0" encoding="utf-8"?>
<!-- Generator: Adobe Illustrator 19.2.1, SVG Export Plug-In . SVG Version: 6.00 Build 0)  -->
<svg version="1.1" id="layer" xmlns="http://www.w3.org/2000/svg" xmlns:xlink="http://www.w3.org/1999/xlink" x="0px" y="0px"
	 viewBox="0 0 652 652" style="enable-background:new 0 0 652 652;" xml:space="preserve">
<style type="text/css">
	.st0{fill:#3D4952;}
	.st1{fill:#DE4A09;}
	.st2{fill:#FEFEFE;}
</style>
<g>
	<path class="st0" d="M126.1,560.5v-19.4h-10.8l0.2,4.5h5v11.5c0,0-3,0.7-5.2,0.7c-3.2,0-6.8-1.8-6.8-13c0-11,4.7-13,8.6-13
		c3.8,0,7.8,1.7,7.8,1.7V529c0,0-3.3-1.8-7.8-1.8c-6.2,0-14.2,2.5-14.2,17.8s6,17.4,12,17.4C119.7,562.5,125,560.8,126.1,560.5z
		 M154.6,561.9V536H149v19.4c0,0-3.1,2.2-5.9,2.2c-2.2,0-3.2-0.9-3.2-3.7V536h-5.6v18.8c0,5.7,3.1,7.6,7.2,7.6
		c4.3,0,7.7-3.6,7.7-3.6l0.7,3.1C150,561.9,154.6,561.9,154.6,561.9z M181.4,561.9v-18c0-7.1-4-8.4-8.9-8.4c-4.5,0-8.5,1.4-8.5,1.4
		v4.6c0.5-0.1,4.6-1.4,7.5-1.4c2.7,0,4.3,0.3,4.3,3.4v2.4h-4.4c-4.1,0-9.8,1.2-9.8,8.3c0,7,4.3,8.3,7.5,8.3c4.5,0,6.8-3.2,6.8-3.2
		l0.6,2.7H181.4z M175.8,556.1c0,0-2.3,2-5,2c-2,0-3.6-0.7-3.6-4.2c0-3.8,2-4.7,6-4.8l2.6,0C175.8,549.1,175.8,556.1,175.8,556.1z
		 M202.6,541.5v-5.6c0,0-1.2-0.3-2.5-0.3c-3.7,0-5.2,3.5-5.2,3.5l-0.8-3h-4.4v25.9h5.6v-19.4c0,0,1.4-1.5,3.7-1.5
		C200.7,541,202.6,541.5,202.6,541.5z M224,561.9v-18c0-7.1-4-8.4-8.9-8.4c-4.5,0-8.5,1.4-8.5,1.4v4.6c0.5-0.1,4.6-1.4,7.5-1.4
		c2.7,0,4.3,0.3,4.3,3.4v2.4h-4.4c-4.1,0-9.8,1.2-9.8,8.3c0,7,4.3,8.3,7.5,8.3c4.5,0,6.8-3.2,6.8-3.2l0.6,2.7H224z M218.5,556.1
		c0,0-2.3,2-5,2c-2,0-3.6-0.7-3.6-4.2c0-3.8,2-4.7,6-4.8l2.6,0C218.5,549.1,218.5,556.1,218.5,556.1z M253.8,561.9v-18.6
		c0-5.9-2.9-7.7-7.3-7.7c-4.6,0-8.5,3.5-8.5,3.5l-1-3h-4.4v25.9h5.6v-19.4c0,0,3.2-2.2,6.5-2.2c2,0,3.6,0.3,3.6,3v18.5
		C248.2,561.9,253.8,561.9,253.8,561.9z M274.7,561.5V557c0,0-3.1,0.9-4.5,0.9c-1.2,0-2.1-0.3-2.1-2.2V540h5.3l0.6-4h-5.9v-7.8
		l-5.2,2l-0.3,5.8h-4.4v4h4.4v15.7c0,5.6,2.8,6.8,6.5,6.8C272,562.5,274.7,561.5,274.7,561.5z M298.1,536h-6.1l-4.6,19.5l-5.8-19.5
		h-6.4l9.8,25.5l-0.3,1.4c-0.7,3-1.8,4.3-3.6,4.3c-1.4,0-4.6-0.7-4.6-0.7v4.4c0,0,2.7,0.8,5,0.8c3.1,0,6.2-0.9,7.8-6.4
		C289.3,565.3,298.1,536,298.1,536z M334,527.7h-22.2v5h8.3v29.2h5.6v-29.2h7.7C333.4,532.7,334,527.7,334,527.7z M348,541.5v-5.6
		c0,0-1.2-0.3-2.5-0.3c-3.7,0-5.2,3.5-5.2,3.5l-0.7-3h-4.4v25.9h5.6v-19.4c0,0,1.4-1.5,3.7-1.5C346.1,541,348,541.5,348,541.5z
		 M373,561.9V536h-5.6v19.4c0,0-3.1,2.2-5.9,2.2c-2.2,0-3.2-0.9-3.2-3.7V536h-5.6v18.8c0,5.7,3.1,7.6,7.2,7.6c4.3,0,7.7-3.6,7.7-3.6
		l0.7,3.1C368.4,561.9,373,561.9,373,561.9z M395.9,554.5c0-4.5-2.6-6.4-5.3-7.4l-2.5-0.9c-1.7-0.6-3.4-1.1-3.4-3.3
		c0-2.1,1.6-2.8,4.2-2.8c2.4,0,6,1,6,1v-4.4c0,0-2.8-1.1-6.4-1.1c-5,0-9.1,2.1-9.1,7.6c0,4.6,3.3,6.2,5.4,7.1l2.3,0.9
		c1.9,0.8,3.4,1.3,3.4,3.5c0,2.7-2.1,3.1-4.5,3.1c-2,0-6.3-1.3-6.3-1.3v4.7c0,0,3.5,1.1,6.5,1.1
		C390.8,562.5,395.9,561.4,395.9,554.5z M415.1,561.5V557c0,0-3.1,0.9-4.5,0.9c-1.3,0-2.1-0.3-2.1-2.2V540h5.3l0.6-4h-5.8v-7.8
		l-5.3,2l-0.3,5.8h-4.4v4h4.4v15.7c0,5.6,2.8,6.8,6.5,6.8C412.4,562.5,415.1,561.5,415.1,561.5z M455.3,552.2c0-5.8-3.6-7.4-7-8
		c2.9-0.7,6-2.6,6-7.5c0-7.6-4.8-8.9-12.9-8.9h-7.3v34.2h7C450,561.9,455.3,561.1,455.3,552.2z M448.8,536.8c0,4.7-2.2,5.5-7.1,5.5
		h-1.9V532h1.8C446.4,532,448.8,532.6,448.8,536.8z M449.8,552.1c0,5.1-2.8,5.6-8,5.6h-2v-11.2h1.9
		C446.8,546.4,449.8,547.3,449.8,552.1z M480,561.9v-18c0-7.1-4-8.4-8.9-8.4c-4.5,0-8.5,1.4-8.5,1.4v4.6c0.5-0.1,4.6-1.4,7.6-1.4
		c2.7,0,4.3,0.3,4.3,3.4v2.4H470c-4.1,0-9.8,1.2-9.8,8.3c0,7,4.3,8.3,7.5,8.3c4.5,0,6.8-3.2,6.8-3.2l0.6,2.7H480z M474.4,556.1
		c0,0-2.3,2-5,2c-2,0-3.7-0.7-3.7-4.2c0-3.8,2.1-4.7,6-4.8l2.6,0C474.4,549.1,474.4,556.1,474.4,556.1z M509.7,561.9v-18.6
		c0-5.9-3-7.7-7.3-7.7c-4.6,0-8.5,3.5-8.5,3.5l-1-3h-4.5v25.9h5.6v-19.4c0,0,3.2-2.2,6.5-2.2c2,0,3.6,0.3,3.6,3v18.5
		C504.2,561.9,509.7,561.9,509.7,561.9z M539,561.9l-8.7-15L538,536h-6.6l-6.7,11.1l8,15.3C532.6,562.5,539,561.9,539,561.9z
		 M518.2,561.9h5.6v-35.2h-5.6L518.2,561.9L518.2,561.9z"/>
	<path class="st1" d="M160.1,450.6H539V71.7H160.1V450.6z"/>
	<path class="st2" d="M242.6,346.2c-2.1,0.6-12.2,3.4-21.3,3.4c-11.6,0-23.3-3.5-23.3-30.7c0-27.1,15.6-31.6,27.4-31.6
		c8.7,0,14.9,3.1,14.9,3.1v8.2c0,0-7.6-3-14.9-3c-7.6,0-16.7,3.5-16.7,22.9c0,19.9,6.9,23,13,23c4.4,0,10.1-1.2,10.1-1.2v-20.3h-9.6
		l-0.5-8h20.8C242.6,311.9,242.6,346.2,242.6,346.2z M249.1,287.3l44.7,0l-1.2,9.6H278v52.6h-11.7v-52.3h-17.1V287.3z M303.4,287.5
		l20.7-0.4c26.1,0,25.4,27.9,10.2,29.6c16.5,2.6,15.8,27,0,32.7h-31C303.4,349.4,303.4,287.5,303.4,287.5z M315,296.9v15.9h10.9
		c6.4-0.4,9.7-14.2,0.4-15.9H315z M315,321.6v17.9h10.9c12.1,0,9.7-17.5,0.4-17.9H315z M357.9,304.8c15.8-7.2,33.8-5.6,36.5,6.3
		v38.5h-10.9v-6.2c-9.6,10.4-32.4,8.4-29.4-12.9c1.8-9.8,12.6-12.7,28.4-11.6c1.6-13.7-16.3-7.3-24.6-4.9
		C357.9,314.1,357.9,304.8,357.9,304.8z M367.1,328.7c-6.9,11.7,7,15.8,15.6,6.6v-8.1C377.5,325.7,369.5,325.6,367.1,328.7z
		 M417,315.8l-0.2,33.8h-12.1V301h11.5v5.5c16.8-9.8,30.6-7.3,33.3,7.3v35.7h-12.1v-33.7C435,306.9,419.9,312.7,417,315.8L417,315.8
		z M458.5,349.6v-62.3h12v62.3C470.5,349.6,458.5,349.6,458.5,349.6z M487.2,301h14.3l-16.8,21.7l18,26.8l-13.3,0L471.7,322
		L487.2,301z M376.5,220.8h94.7v-94.7h-94.7V220.8z"/>
</g>
</svg>
