<?xml version="1.0" encoding="utf-8"?>
<!-- Generator: Adobe Illustrator 19.2.1, SVG Export Plug-In . SVG Version: 6.00 Build 0)  -->
<svg version="1.1" id="layer" xmlns="http://www.w3.org/2000/svg" xmlns:xlink="http://www.w3.org/1999/xlink" x="0px" y="0px"
	 viewBox="0 0 652 652" style="enable-background:new 0 0 652 652;" xml:space="preserve">
<style type="text/css">
	.st0{fill:#FFCB05;}
	.st1{fill:#00678F;}
	.st2{fill:#FFFFFF;}
	.st3{fill:#ED1D24;}
</style>
<polygon class="st0" points="83.7,575.8 566.8,575.8 566.8,75.8 83.7,75.8 "/>
<path class="st1" d="M559.5,324.3c0,53.4-104.9,96.7-234.3,96.7c-129.4,0-234.3-43.3-234.3-96.7c0-53.3,104.9-96.5,234.3-96.5
	C454.6,227.8,559.5,271,559.5,324.3"/>
<polygon class="st2" points="176.9,372.1 201.1,275.4 239.8,275.4 239.8,331.7 265.3,275.4 305.2,275.4 281.1,372.1 255.6,372.1 
	270.1,309.6 239.8,372.1 219.3,372.1 219.3,309.6 203.5,372.1 "/>
<polygon class="st3" points="314.9,359.8 311.3,373.3 339.1,373.3 342.8,359.8 "/>
<polygon class="st0" points="316.2,356.2 330.7,299.9 305.2,299.9 311.3,275.4 390,275.4 384,299.9 358.5,299.9 344,356.2 "/>
<polygon class="st2" points="371.8,372.1 396.1,275.4 423.9,275.4 436.1,326.8 449.3,275.4 474.8,275.4 450.5,372.1 423.9,372.1 
	410.6,319.4 397.3,372.1 "/>
</svg>
